<svg width="640" height="420" viewBox="0 0 640 420" fill="none" xmlns="http://www.w3.org/2000/svg">
  <rect width="640" height="420" rx="36" fill="#0F172A"/>
  <rect x="20" y="20" width="600" height="380" rx="28" fill="url(#paint0_linear)"/>
  <path d="M420 242c18-44 36-74 52-90 16-16 34-24 54-24 24 0 40 10 48 32 9 24 5 47-12 70-19 25-44 38-76 38-27 0-49-9-66-26Z" fill="#BFDBFE" fill-opacity="0.82"/>
  <path d="M218 242c18-44 36-74 52-90 16-16 34-24 54-24 24 0 40 10 48 32 9 24 5 47-12 70-19 25-44 38-76 38-27 0-49-9-66-26Z" fill="#60A5FA" fill-opacity="0.86"/>
  <text x="64" y="130" fill="#BFDBFE" font-family="Arial, sans-serif" font-size="30" font-weight="700">META QUEST</text>
  <text x="64" y="194" fill="white" font-family="Arial, sans-serif" font-size="56" font-weight="800">STORE CREDIT</text>
  <text x="64" y="248" fill="#E0F2FE" font-family="Arial, sans-serif" font-size="22">VR games, apps, and immersive experiences</text>
  <defs>
    <linearGradient id="paint0_linear" x1="20" y1="20" x2="620" y2="400" gradientUnits="userSpaceOnUse">
      <stop stop-color="#0F172A"/>
      <stop offset="1" stop-color="#1D4ED8"/>
    </linearGradient>
  </defs>
</svg>
