<svg width="640" height="420" viewBox="0 0 640 420" fill="none" xmlns="http://www.w3.org/2000/svg">
  <rect width="640" height="420" rx="36" fill="#052E16"/>
  <rect x="20" y="20" width="600" height="380" rx="28" fill="url(#paint0_linear)"/>
  <circle cx="520" cy="102" r="78" fill="#BBF7D0" fill-opacity="0.18"/>
  <text x="64" y="124" fill="#D1FAE5" font-family="Arial, sans-serif" font-size="30" font-weight="700">XBOX</text>
  <text x="64" y="188" fill="white" font-family="Arial, sans-serif" font-size="60" font-weight="800">GIFT CARD</text>
  <text x="64" y="240" fill="#ECFDF5" font-family="Arial, sans-serif" font-size="24">Games, add-ons, and account credit</text>
  <path d="M458 160c18-22 42-39 72-50-15 1-31 5-49 12-21 8-40 20-57 37 11 10 23 22 34 37Z" fill="#D1FAE5" fill-opacity="0.8"/>
  <path d="M435 207c-28-40-55-66-81-79-22-11-43-16-63-17 23 11 43 25 61 44 23 24 42 54 58 91 6-13 14-26 25-39Z" fill="#A7F3D0" fill-opacity="0.76"/>
  <defs>
    <linearGradient id="paint0_linear" x1="38" y1="30" x2="602" y2="390" gradientUnits="userSpaceOnUse">
      <stop stop-color="#166534"/>
      <stop offset="1" stop-color="#022C22"/>
    </linearGradient>
  </defs>
</svg>
